<?xml version="1.0" encoding="iso-8859-1"?>
<!-- Generator: Adobe Illustrator 19.0.0, SVG Export Plug-In . SVG Version: 6.00 Build 0)  -->
<svg version="1.1" id="Capa_1" xmlns="http://www.w3.org/2000/svg" xmlns:xlink="http://www.w3.org/1999/xlink" x="0px" y="0px"
	 viewBox="0 0 512 512" style="enable-background:new 0 0 512 512;" xml:space="preserve">
<path style="fill:#FFCDB3;" d="M426.3,255.87l-0.02,0.01l-341.16-0.03h-0.01c-3.88,13.57-6.1,29.24-5.59,50.15
	c1.47,59.94,29.04,123.78,64.78,170c15.045,0,207.818,0,222.91,0c29.23-37.79,62.01-104.95,64.24-169.98
	C432.17,285.05,430.09,269.41,426.3,255.87z"/>
<path style="fill:#FE73B1;" d="M426.3,255.87l-0.02,0.01C365.07,275.76,307.52,327.17,255.75,366
	c-51.79-38.84-109.38-90.29-170.63-110.15h-0.01c5.55-19.47,14.5-34.65,23.63-54.85l0.07,0.03C151.1,222.72,201.56,236,255.75,236
	s104.65-13.28,146.94-34.97l0.07-0.03C411.94,221.33,420.88,236.43,426.3,255.87z"/>
<path style="fill:#FFCDB3;" d="M402.76,201l-0.07,0.03C360.4,222.72,309.94,236,255.75,236c-85.132,0-140.787-32.653-147.01-35
	c22.385-49.575,34.669-107.426,31.51-165h231C368.083,93.714,380.445,151.58,402.76,201z"/>
<path d="M346,96c0-5.52-4.48-10-10-10s-10,4.48-10,10s4.48,10,10,10S346,101.52,346,96z"/>
<path d="M378.762,29.125C376.874,27.13,374.247,26,371.5,26h-231c-2.747,0-5.374,1.13-7.262,3.125s-2.873,4.679-2.723,7.422
	c6.116,111.479-43.225,176.058-54.77,216.553c-20.875,73.01,13.179,167.31,60.894,229.017c1.894,2.449,4.815,3.883,7.911,3.883
	h222.91c3.095,0,6.016-1.434,7.91-3.882c45.415-58.715,80.982-156.876,60.813-228.934c-11.353-40.718-60.843-104.642-54.698-216.637
	C381.636,33.805,380.651,31.121,378.762,29.125z M398.254,214.477c1.213,2.544,2.413,5.027,3.593,7.463
	c4.695,9.695,8.894,18.387,12.228,27.717C356.916,271.172,303.052,317.658,256,353.466
	c-47.254-35.958-100.945-82.314-158.119-103.823c3.37-9.319,7.566-17.998,12.255-27.678c1.185-2.445,2.39-4.937,3.607-7.489
	C157.467,235.124,206.421,246,256,246C305.578,246,354.531,235.124,398.254,214.477z M92.479,268.985
	C146.632,289.776,197.937,334.571,246,370.973V466h-96.493C97.999,397.144,82.628,319.008,92.479,268.985z M362.486,466H266v-95.027
	c48.404-36.666,99.392-81.161,153.361-101.928C431.252,332.242,400.246,414.969,362.486,466z M387.548,190.15
	c0.794,2.012,1.626,4.041,2.487,6.093C348.891,215.734,302.758,226,256,226s-92.893-10.266-134.037-29.757
	c0.851-2.032,1.68-4.051,2.478-6.07c18.75-47.49,27.636-95.94,26.461-144.172h210.194
	C359.922,94.214,368.805,142.654,387.548,190.15z"/>
<path d="M349.526,133.725c-1.163-5.398-6.484-8.836-11.881-7.67c-5.399,1.163-8.833,6.482-7.67,11.881
	c3.017,14.007,6.874,28.214,11.462,42.227c1.716,5.24,7.357,8.113,12.616,6.391c5.249-1.719,8.11-7.367,6.391-12.616
	C356.07,160.583,352.397,147.054,349.526,133.725z"/>
<path d="M502,106h-61.858l22.929-22.929c3.905-3.905,3.905-10.237,0-14.143s-10.237-3.905-14.143,0l-40,40
	c-3.905,3.905-3.905,10.237,0,14.143l40,40c3.905,3.905,10.237,3.905,14.143,0c3.905-3.905,3.905-10.237,0-14.143L440.142,126H502
	c5.523,0,10-4.477,10-10S507.523,106,502,106z"/>
<path d="M10,126h61.858l-22.929,22.929c-3.905,3.905-3.905,10.237,0,14.143c3.905,3.905,10.237,3.905,14.143,0l40-40
	c3.905-3.905,3.905-10.237,0-14.143l-40-40c-3.905-3.905-10.237-3.905-14.143,0s-3.905,10.237,0,14.143L71.858,106H10
	c-5.523,0-10,4.477-10,10S4.477,126,10,126z"/>
<g>
</g>
<g>
</g>
<g>
</g>
<g>
</g>
<g>
</g>
<g>
</g>
<g>
</g>
<g>
</g>
<g>
</g>
<g>
</g>
<g>
</g>
<g>
</g>
<g>
</g>
<g>
</g>
<g>
</g>
</svg>
